<?xml version="1.0" standalone="no"?><!DOCTYPE svg PUBLIC "-//W3C//DTD SVG 1.1//EN" "http://www.w3.org/Graphics/SVG/1.1/DTD/svg11.dtd"><svg t="1642061917393" class="icon" viewBox="0 0 1024 1024" version="1.1" xmlns="http://www.w3.org/2000/svg" p-id="2588" xmlns:xlink="http://www.w3.org/1999/xlink" width="200" height="200"><defs><style type="text/css"></style></defs><path d="M170.666667 512m-42.666667 0a42.666667 42.666667 0 1 0 85.333333 0 42.666667 42.666667 0 1 0-85.333333 0Z" p-id="2589"></path><path d="M298.666667 469.333333m40.106666 0l517.12 0q40.106667 0 40.106667 40.106667l0 5.12q0 40.106667-40.106667 40.106667l-517.12 0q-40.106667 0-40.106666-40.106667l0-5.12q0-40.106667 40.106666-40.106667Z" p-id="2590"></path><path d="M128 682.666667m40.106667 0l687.786666 0q40.106667 0 40.106667 40.106666l0 5.12q0 40.106667-40.106667 40.106667l-687.786666 0q-40.106667 0-40.106667-40.106667l0-5.12q0-40.106667 40.106667-40.106666Z" p-id="2591"></path><path d="M128 256m40.106667 0l687.786666 0q40.106667 0 40.106667 40.106667l0 5.12q0 40.106667-40.106667 40.106666l-687.786666 0q-40.106667 0-40.106667-40.106666l0-5.12q0-40.106667 40.106667-40.106667Z" p-id="2592"></path></svg>